<svg width="104" height="48" viewBox="0 0 104 48" fill="none" xmlns="http://www.w3.org/2000/svg">
<path d="M28.9318 39V33.3182L39.7841 24.3409C40.5038 23.7443 41.1193 23.1856 41.6307 22.6648C42.1515 22.1345 42.5492 21.59 42.8239 21.0312C43.108 20.4725 43.25 19.8523 43.25 19.1705C43.25 18.4223 43.089 17.7831 42.767 17.2528C42.4545 16.7225 42.0189 16.3153 41.4602 16.0312C40.9015 15.7377 40.2576 15.5909 39.5284 15.5909C38.7992 15.5909 38.1553 15.7377 37.5966 16.0312C37.0473 16.3248 36.6212 16.7557 36.3182 17.3239C36.0152 17.892 35.8636 18.5833 35.8636 19.3977H28.3636C28.3636 17.3523 28.8229 15.5909 29.7415 14.1136C30.66 12.6364 31.9574 11.5 33.6335 10.7045C35.3097 9.90909 37.2746 9.51136 39.5284 9.51136C41.858 9.51136 43.875 9.88542 45.5795 10.6335C47.2936 11.3722 48.6146 12.4138 49.5426 13.7585C50.4801 15.1032 50.9489 16.6799 50.9489 18.4886C50.9489 19.6061 50.7169 20.7187 50.2528 21.8267C49.7888 22.9252 48.9555 24.142 47.7528 25.4773C46.5502 26.8125 44.8409 28.4034 42.625 30.25L39.8977 32.5227V32.6932H51.2614V39H28.9318Z" fill="#4EA8DE"/>
<path d="M62.7457 39.2841C61.1927 39.2841 59.7628 38.8769 58.456 38.0625C57.1586 37.2481 56.117 36.0123 55.331 34.3551C54.5545 32.6979 54.1662 30.6098 54.1662 28.0909C54.1662 25.4583 54.5734 23.3182 55.3878 21.6705C56.2116 20.0227 57.2723 18.8153 58.5696 18.0483C59.8764 17.2812 61.2495 16.8977 62.6889 16.8977C63.7685 16.8977 64.7154 17.0871 65.5298 17.4659C66.3442 17.8352 67.026 18.3324 67.5753 18.9574C68.1245 19.5729 68.5412 20.25 68.8253 20.9886H68.9389V9.90909H76.7798V39H68.9957V35.4205H68.8253C68.5223 36.1591 68.0866 36.822 67.5185 37.4091C66.9598 37.9867 66.2779 38.446 65.473 38.7869C64.6776 39.1184 63.7685 39.2841 62.7457 39.2841ZM65.6435 33.2614C66.3632 33.2614 66.9787 33.053 67.4901 32.6364C68.0109 32.2102 68.4086 31.6136 68.6832 30.8466C68.9673 30.0701 69.1094 29.1515 69.1094 28.0909C69.1094 27.0114 68.9673 26.0881 68.6832 25.321C68.4086 24.5445 68.0109 23.9527 67.4901 23.5455C66.9787 23.1288 66.3632 22.9205 65.6435 22.9205C64.9238 22.9205 64.3082 23.1288 63.7969 23.5455C63.295 23.9527 62.9067 24.5445 62.6321 25.321C62.367 26.0881 62.2344 27.0114 62.2344 28.0909C62.2344 29.1705 62.367 30.0985 62.6321 30.875C62.9067 31.642 63.295 32.2339 63.7969 32.6506C64.3082 33.0578 64.9238 33.2614 65.6435 33.2614ZM91.1406 39.3977C88.7732 39.3977 86.7467 38.929 85.0611 37.9915C83.3755 37.0445 82.0829 35.7282 81.1832 34.0426C80.2836 32.3475 79.8338 30.3826 79.8338 28.1477C79.8338 25.9129 80.2836 23.9527 81.1832 22.267C82.0829 20.572 83.3755 19.2557 85.0611 18.3182C86.7467 17.3712 88.7732 16.8977 91.1406 16.8977C93.508 16.8977 95.5346 17.3712 97.2202 18.3182C98.9058 19.2557 100.198 20.572 101.098 22.267C101.998 23.9527 102.447 25.9129 102.447 28.1477C102.447 30.3826 101.998 32.3475 101.098 34.0426C100.198 35.7282 98.9058 37.0445 97.2202 37.9915C95.5346 38.929 93.508 39.3977 91.1406 39.3977ZM91.1974 33.6023C91.8603 33.6023 92.4332 33.3797 92.9162 32.9347C93.3991 32.4896 93.7732 31.8551 94.0384 31.0312C94.3035 30.2074 94.4361 29.2273 94.4361 28.0909C94.4361 26.9451 94.3035 25.965 94.0384 25.1506C93.7732 24.3267 93.3991 23.6922 92.9162 23.2472C92.4332 22.8021 91.8603 22.5795 91.1974 22.5795C90.4967 22.5795 89.8954 22.8021 89.3935 23.2472C88.8916 23.6922 88.508 24.3267 88.2429 25.1506C87.9777 25.965 87.8452 26.9451 87.8452 28.0909C87.8452 29.2273 87.9777 30.2074 88.2429 31.0312C88.508 31.8551 88.8916 32.4896 89.3935 32.9347C89.8954 33.3797 90.4967 33.6023 91.1974 33.6023Z" fill="#5E60CE"/>
<path d="M3 12.3704L4.58025 13.9506L8.53086 10" stroke="#5E60CE" stroke-width="4.21062" stroke-linecap="round" stroke-linejoin="round"/>
<path d="M3 24.2222L4.58025 25.8025L8.53086 21.8519" stroke="#5E60CE" stroke-width="4.21062" stroke-linecap="round" stroke-linejoin="round"/>
<path d="M3 36.0742L4.58025 37.6544L8.53086 33.7038" stroke="#5E60CE" stroke-width="4.21062" stroke-linecap="round" stroke-linejoin="round"/>
<path d="M14 12H36" stroke="#4EA8DE" stroke-width="4.21062" stroke-linecap="round"/>
<path d="M14 25H42" stroke="#4EA8DE" stroke-width="4.21062" stroke-linecap="round"/>
<path d="M14 37H36" stroke="#4EA8DE" stroke-width="4.21062" stroke-linecap="round"/>
</svg>
